<svg width="495" height="124" viewBox="0 0 495 124" fill="none" xmlns="http://www.w3.org/2000/svg">
<path fill-rule="evenodd" clip-rule="evenodd" d="M57.5832 0.0116228C57.5832 0.0116228 23.3744 -1.61266 9.70681 34.7115C3.71575 33.5856 0.291247 42.1821 0.00575112 55.6471C-0.23337 66.8762 7.0504 67.9527 9.49088 67.9978C13.7864 90.7407 33.6348 107.273 57.5469 107.273C72.0811 107.273 81.2054 100.822 86.3197 91.2695C81.1808 95.6804 71.3985 98.8026 57.5832 98.7735C35.6217 98.727 17.7529 80.8453 17.7529 58.8056C17.7529 36.7629 35.6217 18.8362 57.5832 18.8362C79.546 18.8362 97.4178 36.7629 97.4178 58.8056C94.7367 76.003 77.4027 83.1234 61.8221 85.4741C60.8845 84.2799 60.7888 83.6028 58.4338 82.9229C56.5658 82.3839 50.9892 81.9611 48.3835 83.382C46.7734 84.2595 46.1604 87.3628 47.1662 89.6554C48.1183 91.8289 53.0862 92.1805 56.4948 91.7591C59.7816 91.3538 60.7888 90.5402 61.6424 89.4201V89.4084C91.4992 87.0679 105.703 67.9978 105.703 67.9978C108.243 67.9251 115.324 66.7222 115.09 55.6471C114.808 42.2373 111.406 33.6611 105.462 34.7028C92.9122 1.37004 63.0597 0 58.244 0C57.8121 0 57.5832 0.0116228 57.5832 0.0116228M101.993 33.5522C102.383 34.4123 102.654 35.1707 101.662 35.2331C101.657 35.236 101.647 35.236 101.641 35.2375C100.606 35.2912 100.278 34.6941 99.9263 34.0868C99.8843 34.0215 99.8452 33.9938 99.8031 33.9764C91.2919 19.445 75.5954 9.6586 57.5831 9.6586C39.8041 9.6586 24.2815 19.1995 15.7007 33.4243L15.6645 33.372C15.0601 34.4021 14.708 35.345 13.6022 35.2462C13.5892 35.2462 13.5819 35.2462 13.5689 35.2433C12.695 35.1518 12.711 34.6157 13.1008 33.712C18.0484 22.9769 30.7798 5.33201 57.5831 5.74898C84.2559 5.33201 96.9945 22.8025 101.993 33.5522" fill="#1775CF"/>
<path fill-rule="evenodd" clip-rule="evenodd" d="M384.56 53.7405C379.982 58.0889 376.342 64.1299 373.635 71.8692C373.106 73.3787 372.696 74.7923 372.351 76.1536C372.306 76.3323 372.252 76.5169 372.21 76.6941L371.733 79.0405C371.655 79.5126 371.591 79.9746 371.538 80.425C371.507 80.704 371.478 80.98 371.455 81.2502C371.419 81.657 371.396 82.058 371.383 82.4489C371.374 82.7481 371.374 83.0402 371.377 83.3293C371.383 83.6765 371.39 84.0194 371.413 84.3535L371.635 86.1362C371.701 86.4921 371.793 86.8306 371.887 87.1692C371.942 87.3769 371.986 87.5934 372.052 87.7924C372.226 88.3227 372.43 88.8356 372.672 89.3223C374.643 93.2973 379.22 95.3574 385.234 94.8882C394.921 94.1341 398.477 88.022 401.451 83.3525C398.344 86.6868 392.65 87.8927 389.031 87.4394C386.02 87.0646 384.327 85.7425 383.411 83.7085C382.497 81.6759 382.729 78.5712 384.105 74.3928H406.606L408.697 68.4201C411.04 61.7181 411.391 56.5111 409.749 52.7947C408.104 49.0783 404.729 47.2201 399.628 47.2201C394.16 47.2201 389.138 49.395 384.56 53.7405M391.683 58.388C393.314 56.691 394.93 55.844 396.527 55.844C398.237 55.844 399.273 56.7273 399.637 58.494C399.999 60.2592 399.612 62.854 398.471 66.274H387.114C388.528 62.7145 390.052 60.0863 391.683 58.388" fill="#1775CF"/>
<path fill-rule="evenodd" clip-rule="evenodd" d="M273.23 53.6592C268.519 57.9523 264.839 63.9105 262.184 71.5379C260.46 76.4922 259.694 80.8187 259.89 84.5192C260.086 88.221 261.212 91.0555 263.268 93.0256C265.327 94.9971 268.145 95.9807 271.729 95.9807C277.381 95.9807 282.577 93.8348 287.318 89.5431C292.057 85.2514 295.77 79.2482 298.451 71.5379C301.046 64.0805 301.475 58.163 299.739 53.7841C298.001 49.4096 294.376 47.2201 288.863 47.2201C283.154 47.2201 277.944 49.3674 273.23 53.6592M271.334 82.6393C271.142 80.1361 271.897 76.4342 273.601 71.5381C275.315 66.6115 277.126 62.9329 279.039 60.4979C280.947 58.0644 283.079 56.8469 285.43 56.8469C287.751 56.8469 289.029 58.0644 289.258 60.4979C289.489 62.9329 288.747 66.6115 287.034 71.5381C283.588 81.4436 279.624 86.3979 275.146 86.3979C272.795 86.3979 271.524 85.1469 271.334 82.6393" fill="#1775CF"/>
<path fill-rule="evenodd" clip-rule="evenodd" d="M252.567 41.2075C246.827 46.7792 242.221 54.5505 238.752 64.5199C235.282 74.4894 234.432 82.2244 236.208 87.7263C237.985 93.2297 242.311 95.9814 249.19 95.9814C253.651 95.9814 257.654 95.0574 261.216 93.2297C261.138 93.16 261.044 93.1106 260.97 93.0408C259.106 91.2582 258.052 88.7288 257.722 85.5253C256.408 85.7998 255.158 85.9408 253.98 85.9408C246.599 85.9408 245.385 78.8291 250.335 64.6027C252.713 57.7714 255.51 52.4366 258.728 48.5996C261.942 44.7641 265.18 42.8463 268.439 42.8463C270.108 42.8463 271.53 43.2023 272.704 43.9171C273.875 44.6319 274.937 45.4222 275.888 46.2896L282.879 37.0073C281.076 35.4673 279.256 34.3878 277.426 33.7733C275.591 33.1572 273.56 32.8492 271.334 32.8492C264.565 32.8492 258.31 35.6358 252.567 41.2075" fill="#1775CF"/>
<mask id="mask0_58_282" style="mask-type:luminance" maskUnits="userSpaceOnUse" x="236" y="33" width="49" height="64">
<path fill-rule="evenodd" clip-rule="evenodd" d="M253.767 41.5485C247.95 47.1742 243.282 55.0208 239.766 65.0869V65.0869C236.25 75.1515 235.388 82.9628 237.19 88.5181V88.5181C238.989 94.0748 243.373 96.8532 250.346 96.8532V96.8532C254.864 96.8532 258.922 95.9187 262.53 94.0748V94.0748C262.451 94.0044 262.357 93.9545 262.281 93.8841V93.8841C260.393 92.0857 259.324 89.5303 258.991 86.2957V86.2957C257.658 86.5715 256.392 86.7152 255.199 86.7152V86.7152C247.72 86.7152 246.488 79.5346 251.506 65.1705V65.1705C253.916 58.273 256.75 52.8879 260.01 49.0123V49.0123C263.266 45.1411 266.548 43.2032 269.851 43.2032V43.2032C271.543 43.2032 272.982 43.5626 274.171 44.2844V44.2844C275.36 45.0061 276.436 45.8041 277.398 46.6799V46.6799L284.484 37.3077C282.655 35.7542 280.812 34.6628 278.956 34.0423V34.0423C277.098 33.4203 275.039 33.1093 272.784 33.1093V33.1093C265.924 33.1093 259.587 35.9229 253.767 41.5485V41.5485Z" fill="white"/>
</mask>
<g mask="url(#mask0_58_282)">
<path fill-rule="evenodd" clip-rule="evenodd" d="M-18.619 212.306H515.015V-87.0731H-18.619V212.306Z" fill="#1775CF"/>
</g>
<path fill-rule="evenodd" clip-rule="evenodd" d="M323.234 48.3601C320.945 49.5939 318.553 51.3571 316.802 53.5409L317.553 47.4556H308.745L292.47 94.8775H303.576L311.39 72.1011C313.369 66.3409 315.329 62.2482 317.276 59.8203C319.221 57.3938 321.391 56.1821 323.785 56.1821C325.594 56.1821 326.598 57.0615 326.802 58.8218C327.008 60.5806 326.52 63.1762 325.34 66.6129L315.639 94.8775H326.828L337.451 63.9276C339.397 58.2527 339.827 53.9409 338.737 50.9895C337.649 48.0351 334.991 46.5601 330.759 46.5601C328.255 46.5601 325.522 47.1248 323.234 48.3601" fill="#1775CF"/>
<mask id="mask1_58_282" style="mask-type:luminance" maskUnits="userSpaceOnUse" x="292" y="47" width="49" height="49">
<path fill-rule="evenodd" clip-rule="evenodd" d="M323.864 49.3913C321.543 50.6234 319.12 52.3827 317.345 54.565V54.565L318.107 48.4866H309.182L292.693 95.8432H303.945L311.863 73.0997C313.866 67.3458 315.852 63.2588 317.826 60.8357V60.8357C319.798 58.4126 321.995 57.2025 324.421 57.2025V57.2025C326.254 57.2025 327.273 58.0807 327.479 59.8371V59.8371C327.686 61.5935 327.192 64.187 325.996 67.6175V67.6175L316.168 95.8432H327.505L338.269 64.9374C340.24 59.2688 340.677 54.963 339.57 52.0156V52.0156C338.469 49.0667 335.775 47.5938 331.489 47.5938V47.5938C328.951 47.5938 326.181 48.1562 323.864 49.3913V49.3913Z" fill="white"/>
</mask>
<g mask="url(#mask1_58_282)">
<path fill-rule="evenodd" clip-rule="evenodd" d="M-18.8438 212.463H512.376V-87.2491H-18.8438V212.463Z" fill="#1775CF"/>
</g>
<path fill-rule="evenodd" clip-rule="evenodd" d="M361.302 48.3601C359.012 49.5939 356.622 51.3571 354.87 53.5409L355.623 47.4556H346.813L330.539 94.8775H341.644L349.458 72.1011C351.438 66.3409 353.398 62.2482 355.345 59.8203C357.292 57.3938 359.461 56.1821 361.852 56.1821C363.661 56.1821 364.668 57.0615 364.871 58.8218C365.073 60.5806 364.587 63.1762 363.408 66.6129L353.707 94.8775H364.897L375.519 63.9276C377.464 58.2527 377.896 53.9409 376.806 50.9895C375.717 48.0351 373.058 46.5601 368.828 46.5601C366.323 46.5601 363.59 47.1248 361.302 48.3601" fill="#1775CF"/>
<mask id="mask2_58_282" style="mask-type:luminance" maskUnits="userSpaceOnUse" x="329" y="47" width="49" height="49">
<path fill-rule="evenodd" clip-rule="evenodd" d="M361.073 49.3913C358.751 50.6234 356.329 52.3827 354.554 54.565V54.565L355.319 48.4866H346.392L329.902 95.8432H341.154L349.07 73.0997C351.078 67.3458 353.064 63.2588 355.037 60.8357V60.8357C357.009 58.4126 359.207 57.2025 361.63 57.2025V57.2025C363.463 57.2025 364.483 58.0807 364.69 59.8371V59.8371C364.893 61.5935 364.402 64.187 363.207 67.6175V67.6175L353.377 95.8432H364.716L375.478 64.9374C377.449 59.2688 377.885 54.963 376.781 52.0156V52.0156C375.677 49.0667 372.984 47.5938 368.698 47.5938V47.5938C366.16 47.5938 363.391 48.1562 361.073 49.3913V49.3913Z" fill="white"/>
</mask>
<g mask="url(#mask2_58_282)">
<path fill-rule="evenodd" clip-rule="evenodd" d="M-18.7875 212.463H512.432V-87.2491H-18.7875V212.463Z" fill="#1775CF"/>
</g>
<path fill-rule="evenodd" clip-rule="evenodd" d="M459.255 39.2393L453.063 49.0474L439.208 57.983H448.692L440.388 81.962C438.73 86.7552 438.445 90.3512 439.536 92.7471C440.622 95.143 443.156 96.3417 447.131 96.3417C450.694 96.3417 453.582 95.718 455.798 94.4707L458.79 85.8269C456.74 86.6022 454.946 86.9898 453.412 86.9898C450.945 86.9898 450.248 85.4393 451.32 82.3353L459.754 57.983H468.061L471.098 49.2133H462.791L466.245 39.2393H459.255Z" fill="#1775CF"/>
<mask id="mask3_58_282" style="mask-type:luminance" maskUnits="userSpaceOnUse" x="438" y="38" width="34" height="58">
<path fill-rule="evenodd" clip-rule="evenodd" d="M459.164 38.2704L452.732 48.1429L438.342 57.1385H448.193L439.568 81.2747C437.846 86.0979 437.552 89.7175 438.684 92.1305V92.1305C439.811 94.5421 442.443 95.7486 446.572 95.7486V95.7486C450.272 95.7486 453.27 95.1209 455.574 93.8654V93.8654L458.681 85.1635C456.55 85.9453 454.688 86.3355 453.095 86.3355V86.3355C450.533 86.3355 449.809 84.7748 450.924 81.6505V81.6505L459.682 57.1385H468.31L471.463 48.3113H462.836L466.423 38.2704H459.164Z" fill="white"/>
</mask>
<g mask="url(#mask3_58_282)">
<path fill-rule="evenodd" clip-rule="evenodd" d="M-26.0244 209.063H512.094V-84.7719H-26.0244V209.063Z" fill="#1775CF"/>
</g>
<path fill-rule="evenodd" clip-rule="evenodd" d="M421.054 52.7337C416.849 56.85 413.302 63.0796 410.404 71.4254C410.087 72.3313 409.81 73.2078 409.549 74.0651C407.647 80.5153 407.702 85.4934 409.518 89.1758C411.5 93.2009 416.094 95.2848 422.135 94.8112C431.865 94.048 435.437 87.8611 438.422 83.133C435.299 86.5081 429.581 87.7287 425.949 87.2699C422.925 86.8905 421.221 85.5537 420.303 83.4948C419.385 81.4374 419.617 78.2932 420.999 74.0637C421.262 73.1975 421.589 72.3004 421.923 71.3401C423.667 66.315 425.502 62.5487 427.432 60.0354C429.358 57.5221 431.52 56.2676 433.914 56.2676C434.021 56.2676 435.07 56.2926 435.516 56.6059L446.208 49.6043C445.122 48.8322 442.778 47.766 441.282 47.3263C439.547 46.8159 437.804 46.5601 436.058 46.5601C430.256 46.5601 425.257 48.6175 421.054 52.7337" fill="#1775CF"/>
<mask id="mask4_58_282" style="mask-type:luminance" maskUnits="userSpaceOnUse" x="408" y="47" width="40" height="49">
<path fill-rule="evenodd" clip-rule="evenodd" d="M421.889 53.7588C417.682 57.8692 414.135 64.0901 411.237 72.4226V72.4226C410.919 73.3287 410.642 74.204 410.381 75.0602V75.0602C408.479 81.5013 408.534 86.4723 410.349 90.1496V90.1496C412.332 94.169 416.927 96.25 422.969 95.7771V95.7771C432.703 95.0149 436.276 88.8352 439.261 84.1153V84.1153C436.137 87.4856 430.418 88.7045 426.786 88.2464V88.2464C423.759 87.8689 422.057 86.5325 421.137 84.4751V84.4751C420.22 82.4221 420.45 79.2823 421.834 75.0602V75.0602C422.096 74.1937 422.422 73.2979 422.758 72.3389V72.3389C424.504 67.3209 426.338 63.5599 428.268 61.0501V61.0501C430.195 58.5404 432.357 57.2877 434.752 57.2877V57.2877C434.857 57.2877 435.907 57.3127 436.353 57.6255V57.6255L447.048 50.6351C445.962 49.8627 443.618 48.798 442.121 48.3589V48.3589C440.385 47.8493 438.643 47.5938 436.897 47.5938V47.5938C431.093 47.5938 426.092 49.6468 421.889 53.7588V53.7588Z" fill="white"/>
</mask>
<g mask="url(#mask4_58_282)">
<path fill-rule="evenodd" clip-rule="evenodd" d="M-17.4535 212.463H512.257V-87.2491H-17.4535V212.463Z" fill="#1775CF"/>
</g>
<path fill-rule="evenodd" clip-rule="evenodd" d="M146.054 33.3826H134.875L113.842 94.8775H140.521L143.943 84.8672H128.445L146.054 33.3826Z" fill="#1775CF"/>
<mask id="mask5_58_282" style="mask-type:luminance" maskUnits="userSpaceOnUse" x="113" y="33" width="35" height="63">
<path fill-rule="evenodd" clip-rule="evenodd" d="M135.634 33.6241L113.927 95.378H141.463L144.996 85.3254H128.999L147.174 33.6241H135.634Z" fill="white"/>
</mask>
<g mask="url(#mask5_58_282)">
<path fill-rule="evenodd" clip-rule="evenodd" d="M-16.8461 211.056H517.951V-86.236H-16.8461V211.056Z" fill="#1775CF"/>
</g>
<path fill-rule="evenodd" clip-rule="evenodd" d="M224.501 65.8475H213.109C214.527 62.2429 216.056 59.5826 217.691 57.8649C219.327 56.1457 220.948 55.2883 222.55 55.2883C224.265 55.2883 225.305 56.1825 225.67 57.9707C226.034 59.7576 225.644 62.3841 224.501 65.8475M235.813 52.2014C234.164 48.441 230.78 46.5601 225.662 46.5601C220.177 46.5601 215.138 48.7616 210.548 53.1603C205.956 57.5604 202.304 63.6753 199.588 71.5094C196.91 79.2317 196.576 85.0172 198.621 89.1747C200.602 93.1998 205.189 95.2837 211.224 94.8116C220.942 94.0484 224.51 87.8599 227.49 83.1333C224.372 86.5069 218.663 87.7276 215.034 87.2702C212.011 86.8893 210.314 85.5525 209.393 83.4951C208.478 81.4377 208.709 78.2934 210.091 74.0639H232.661L234.758 68.0196C237.11 61.2355 237.461 55.9633 235.813 52.2014" fill="#1775CF"/>
<mask id="mask6_58_282" style="mask-type:luminance" maskUnits="userSpaceOnUse" x="198" y="47" width="40" height="49">
<path fill-rule="evenodd" clip-rule="evenodd" d="M211.845 54.1846C207.381 58.5786 203.833 64.6863 201.194 72.5078V72.5078C198.591 80.2178 198.265 85.9965 200.254 90.1481V90.1481C202.178 94.169 206.637 96.25 212.502 95.7771V95.7771C221.947 95.0149 225.413 88.8338 228.311 84.1153V84.1153C225.278 87.4856 219.731 88.7031 216.203 88.2478V88.2478C213.266 87.8675 211.618 86.5325 210.723 84.4766V84.4766C209.832 82.4235 210.058 79.2823 211.401 75.0587V75.0587H233.336L235.373 69.0229C237.66 62.2485 238.001 56.9837 236.399 53.2271V53.2271C234.796 49.472 231.507 47.5938 226.532 47.5938V47.5938C221.202 47.5938 216.306 49.7922 211.845 54.1846V54.1846ZM218.787 58.8828C220.377 57.1661 221.952 56.3084 223.509 56.3084V56.3084C225.177 56.3084 226.186 57.2042 226.542 58.9885V58.9885C226.895 60.7743 226.517 63.3971 225.406 66.8541V66.8541H214.334C215.713 63.2547 217.198 60.5981 218.787 58.8828V58.8828Z" fill="white"/>
</mask>
<g mask="url(#mask6_58_282)">
<path fill-rule="evenodd" clip-rule="evenodd" d="M-8.96246 212.463H504.696V-87.2491H-8.96246V212.463Z" fill="#1775CF"/>
<path fill-rule="evenodd" clip-rule="evenodd" d="M193.105 101.935H243.252V41.5022H193.105V101.935Z" fill="#1775CF"/>
</g>
<path fill-rule="evenodd" clip-rule="evenodd" d="M166.696 42.1676C168.475 42.1676 170.115 41.6559 171.615 40.6324C173.114 39.6075 174.201 38.1675 174.873 36.3124C175.525 34.5091 175.489 33.0835 174.77 32.0327C174.049 30.9818 172.771 30.4543 170.938 30.4543C168.988 30.4543 167.281 30.9818 165.813 32.0327C164.343 33.0835 163.285 34.5091 162.633 36.3124C161.961 38.1675 162.005 39.6075 162.763 40.631C163.521 41.6559 164.834 42.1676 166.696 42.1676" fill="#1775CF"/>
<mask id="mask7_58_282" style="mask-type:luminance" maskUnits="userSpaceOnUse" x="163" y="30" width="14" height="12">
<path fill-rule="evenodd" clip-rule="evenodd" d="M166.96 32.03C165.487 33.0376 164.424 34.4046 163.771 36.1337V36.1337C163.097 37.9139 163.143 39.2947 163.902 40.2761V40.2761C164.663 41.2574 165.978 41.7467 167.845 41.7467V41.7467V41.7481C169.629 41.7481 171.273 41.2574 172.778 40.2761V40.2761C174.281 39.2947 175.371 37.9139 176.045 36.1337V36.1337C176.698 34.4046 176.662 33.0376 175.942 32.03V32.03C175.218 31.0224 173.938 30.5165 172.098 30.5165V30.5165C170.144 30.5165 168.431 31.0224 166.96 32.03V32.03Z" fill="white"/>
</mask>
<g mask="url(#mask7_58_282)">
<path fill-rule="evenodd" clip-rule="evenodd" d="M-13.4194 201.802H509.751V-80.28H-13.4194V201.802Z" fill="#1775CF"/>
<path fill-rule="evenodd" clip-rule="evenodd" d="M157.325 47.4813H182.483V24.7833H157.325V47.4813Z" fill="#1775CF"/>
</g>
<path fill-rule="evenodd" clip-rule="evenodd" d="M180.464 77.969C179.779 79.2865 174.556 88.1604 174.556 88.1604C176.599 83.0713 178.244 79.5896 179.737 75.8893L182.238 48.0242H159.514L143.125 94.8775H154.306L170.614 48.2501L166.48 94.8775H180.351L209.013 48.0242H197.411C186.797 66.6699 181.15 76.6515 180.464 77.969" fill="#1775CF"/>
<mask id="mask8_58_282" style="mask-type:luminance" maskUnits="userSpaceOnUse" x="143" y="48" width="67" height="48">
<path fill-rule="evenodd" clip-rule="evenodd" d="M197.881 48.6234C187.282 67.3285 181.642 77.3412 180.955 78.6613V78.6613C180.273 79.9843 175.057 88.8844 175.057 88.8844V88.8844C177.096 83.7809 178.74 80.2869 180.231 76.5766V76.5766L182.727 48.6234H160.036L143.67 95.6224H154.836L171.121 48.8514L166.992 95.6224H180.844L209.467 48.6234H197.881Z" fill="white"/>
</mask>
<g mask="url(#mask8_58_282)">
<path fill-rule="evenodd" clip-rule="evenodd" d="M-14.3071 211.714H510.766V-86.6414H-14.3071V211.714Z" fill="#1775CF"/>
</g>
<path fill-rule="evenodd" clip-rule="evenodd" d="M485.335 46.9356C485.215 47.576 484.97 48.0372 484.601 48.3134C484.234 48.5909 483.688 48.7312 482.966 48.7312H482.373L483.034 45.2238H483.598C484.299 45.2238 484.797 45.3438 485.087 45.5852C485.377 45.8252 485.458 46.2748 485.335 46.9356M492.409 48.7627C492.127 50.3805 491.473 51.8856 490.446 53.2778C489.799 54.1554 489.045 54.9 488.208 55.539L485.987 50.5844L485.776 50.1738C487.391 49.581 488.352 48.4823 488.653 46.8789C488.907 45.53 488.676 44.5339 487.952 43.8934C487.229 43.2515 485.954 42.932 484.123 42.932H480.189L477.754 55.831H481.031L481.946 50.9935H482.814L484.71 55.831H487.829C487.45 56.0971 487.057 56.3457 486.638 56.5655C485.129 57.3664 483.578 57.764 481.986 57.764C480.395 57.764 478.987 57.3664 477.758 56.5655C476.531 55.7674 475.641 54.6701 475.088 53.2706C474.533 51.8726 474.397 50.3704 474.676 48.7627C474.958 47.1464 475.612 45.6414 476.647 44.2477C477.68 42.8554 478.952 41.7566 480.468 40.9528C481.982 40.1489 483.532 39.747 485.113 39.747C486.705 39.747 488.116 40.1504 489.347 40.96C490.579 41.7682 491.466 42.8684 492.011 44.2549C492.557 45.6428 492.691 47.1464 492.409 48.7627M493.826 43.1678C493.123 41.4618 492.024 40.1375 490.53 39.1919C489.035 38.2478 487.343 37.7751 485.455 37.7751C483.519 37.7751 481.627 38.2666 479.778 39.2498C477.927 40.2343 476.379 41.5789 475.122 43.2834C473.869 44.9894 473.073 46.8168 472.734 48.7628C472.401 50.6929 472.552 52.4987 473.196 54.183C473.837 55.8702 474.91 57.2176 476.414 58.2253C477.914 59.233 479.661 59.7376 481.642 59.7376C483.608 59.7376 485.504 59.2446 487.332 58.2614C489.155 57.2769 490.694 55.9453 491.95 54.2654C493.205 52.584 494.005 50.7507 494.35 48.7628C494.7 46.7373 494.526 44.8723 493.826 43.1678" fill="#1775CF"/>
<mask id="mask9_58_282" style="mask-type:luminance" maskUnits="userSpaceOnUse" x="472" y="36" width="23" height="23">
<path fill-rule="evenodd" clip-rule="evenodd" d="M479.807 38.0041C477.967 38.9964 476.425 40.348 475.174 42.0633V42.0633C473.927 43.7801 473.136 45.6191 472.8 47.5775V47.5775C472.466 49.5212 472.619 51.337 473.258 53.0334V53.0334C473.896 54.7313 474.964 56.0858 476.46 57.1014V57.1014C477.954 58.114 479.691 58.6232 481.663 58.6232V58.6232C483.618 58.6232 485.505 58.1271 487.323 57.1363V57.1363C489.139 56.1469 490.669 54.8055 491.919 53.1149V53.1149C493.167 51.4228 493.963 49.578 494.307 47.5775V47.5775C494.654 45.5391 494.482 43.6623 493.785 41.9469V41.9469C493.085 40.2301 491.992 38.8989 490.505 37.9459V37.9459C489.018 36.9973 487.335 36.5215 485.456 36.5215V36.5215C483.529 36.5215 481.649 37.0148 479.807 38.0041V38.0041ZM477.797 55.4295C476.576 54.6278 475.691 53.5221 475.141 52.1152V52.1152C474.588 50.7083 474.454 49.1966 474.731 47.5773V47.5773C475.011 45.9522 475.664 44.4362 476.692 43.0351V43.0351C477.72 41.6325 478.985 40.5282 480.496 39.7193V39.7193C482 38.9104 483.542 38.5059 485.116 38.5059V38.5059C486.701 38.5059 488.103 38.9118 489.328 39.7266V39.7266C490.552 40.5384 491.436 41.6456 491.979 43.0423V43.0423C492.522 44.4391 492.656 45.9522 492.375 47.5773V47.5773C492.094 49.2068 491.443 50.7214 490.421 52.121V52.121C489.778 53.0042 489.026 53.7534 488.195 54.398V54.398L485.987 49.4105L485.775 48.9988C487.382 48.4008 488.338 47.2965 488.637 45.683V45.683C488.891 44.3256 488.66 43.3231 487.941 42.6772V42.6772C487.221 42.0326 485.951 41.7111 484.131 41.7111V41.7111H480.215L477.793 54.6919H481.054L481.964 49.8237H482.828L484.714 54.6919H487.818C487.441 54.9581 487.049 55.2084 486.633 55.4295V55.4295C485.132 56.2355 483.588 56.6356 482.004 56.6356V56.6356C480.421 56.6356 479.018 56.2355 477.797 55.4295V55.4295ZM483.047 44.0174H483.609C484.307 44.0174 484.799 44.1367 485.09 44.3797V44.3797C485.378 44.6227 485.46 45.0737 485.336 45.7401V45.7401C485.215 46.3831 484.973 46.8487 484.606 47.1266V47.1266C484.242 47.4059 483.698 47.5471 482.981 47.5471V47.5471H482.389L483.047 44.0174Z" fill="white"/>
</mask>
<g mask="url(#mask9_58_282)">
<path fill-rule="evenodd" clip-rule="evenodd" d="M-12.5653 209.624H510.605V-87.304H-12.5653V209.624Z" fill="#1775CF"/>
<path fill-rule="evenodd" clip-rule="evenodd" d="M466.655 64.6582H500.452V30.4865H466.655V64.6582Z" fill="#1775CF"/>
</g>
<path fill-rule="evenodd" clip-rule="evenodd" d="M370.229 113.775L369.185 116.288L368.209 113.775H366.581L368.417 118.095L366.988 121.443H368.581L371.831 113.775H370.229Z" fill="#1775CF"/>
<path fill-rule="evenodd" clip-rule="evenodd" d="M364.614 117.359C364.404 117.597 364.12 117.716 363.761 117.716C363.617 117.716 363.477 117.691 363.344 117.64C363.21 117.589 363.081 117.511 362.955 117.406V115.375C363.084 115.27 363.215 115.19 363.351 115.137C363.485 115.083 363.622 115.054 363.761 115.054C364.124 115.054 364.408 115.174 364.617 115.411C364.824 115.647 364.927 115.972 364.927 116.385C364.927 116.796 364.824 117.121 364.614 117.359M364.351 113.662C364.079 113.662 363.83 113.702 363.607 113.781C363.383 113.861 363.176 113.984 362.987 114.15V111.329H361.477V118.621C361.9 118.756 362.299 118.854 362.671 118.92C363.044 118.985 363.398 119.018 363.734 119.018C364.64 119.018 365.347 118.783 365.856 118.312C366.365 117.842 366.619 117.189 366.619 116.354C366.619 115.524 366.415 114.869 366.008 114.386C365.601 113.903 365.049 113.662 364.351 113.662" fill="#1775CF"/>
<path fill-rule="evenodd" clip-rule="evenodd" d="M382.166 107.819C381.808 107.497 381.312 107.337 380.671 107.337H378.148V111.59H380.671C381.312 111.59 381.808 111.416 382.166 111.072C382.52 110.724 382.696 110.176 382.696 109.424C382.696 108.673 382.52 108.138 382.166 107.819M384.303 113.021C383.52 113.726 382.397 114.078 380.941 114.078H378.148V119.272H375.363V104.83H381.123C382.448 104.83 383.507 105.202 384.299 105.946C385.085 106.692 385.481 107.845 385.481 109.405C385.481 111.109 385.089 112.316 384.303 113.021" fill="#1775CF"/>
<mask id="mask10_58_282" style="mask-type:luminance" maskUnits="userSpaceOnUse" x="376" y="104" width="10" height="15">
<path fill-rule="evenodd" clip-rule="evenodd" d="M376.015 104.804V118.903H378.691V113.833H381.374C382.773 113.833 383.852 113.488 384.605 112.799V112.799C385.36 112.111 385.735 110.934 385.735 109.269V109.269C385.735 107.745 385.356 106.62 384.599 105.892V105.892C383.84 105.165 382.821 104.804 381.547 104.804V104.804H376.015ZM378.691 107.251H381.113C381.73 107.251 382.207 107.408 382.551 107.721V107.721C382.891 108.032 383.059 108.554 383.059 109.288V109.288C383.059 110.022 382.891 110.557 382.551 110.896V110.896C382.207 111.232 381.73 111.402 381.113 111.402V111.402H378.691V107.251Z" fill="white"/>
</mask>
<g mask="url(#mask10_58_282)">
<path fill-rule="evenodd" clip-rule="evenodd" d="M13.175 210.338H501.468V-88.0175H13.175V210.338Z" fill="#1775CF"/>
<path fill-rule="evenodd" clip-rule="evenodd" d="M370.441 124.967H391.309V98.7405H370.441V124.967Z" fill="#1775CF"/>
</g>
<path fill-rule="evenodd" clip-rule="evenodd" d="M393.471 113.278C393.311 113.381 393.154 113.461 392.995 113.524C392.835 113.586 392.618 113.644 392.339 113.697L391.782 113.803C391.264 113.9 390.888 114.015 390.661 114.152C390.277 114.383 390.083 114.743 390.083 115.229C390.083 115.663 390.199 115.977 390.436 116.17C390.67 116.363 390.957 116.459 391.293 116.459C391.826 116.459 392.32 116.298 392.769 115.977C393.219 115.659 393.451 115.073 393.471 114.222V113.278ZM391.974 112.094C392.429 112.034 392.757 111.96 392.951 111.871C393.302 111.716 393.477 111.475 393.477 111.149C393.477 110.749 393.341 110.475 393.075 110.324C392.803 110.172 392.408 110.098 391.888 110.098C391.304 110.098 390.888 110.246 390.645 110.544C390.473 110.763 390.356 111.061 390.297 111.434H387.939C387.993 110.585 388.221 109.886 388.63 109.34C389.278 108.485 390.389 108.055 391.969 108.055C392.996 108.055 393.909 108.267 394.707 108.689C395.504 109.111 395.905 109.907 395.905 111.078V115.532C395.905 115.841 395.908 116.217 395.919 116.656C395.936 116.989 395.984 117.214 396.066 117.334C396.146 117.452 396.268 117.551 396.426 117.629V118.002H393.77C393.694 117.805 393.643 117.62 393.613 117.448C393.586 117.279 393.562 117.081 393.547 116.861C393.206 117.241 392.816 117.564 392.375 117.833C391.844 118.146 391.247 118.304 390.582 118.304C389.73 118.304 389.026 118.053 388.473 117.551C387.916 117.049 387.641 116.339 387.641 115.417C387.641 114.222 388.086 113.359 388.977 112.823C389.47 112.533 390.186 112.325 391.138 112.2L391.974 112.094Z" fill="#1775CF"/>
<mask id="mask11_58_282" style="mask-type:luminance" maskUnits="userSpaceOnUse" x="386" y="107" width="10" height="12">
<path fill-rule="evenodd" clip-rule="evenodd" d="M387.611 109.005C387.185 109.568 386.947 110.287 386.89 111.162V111.162H389.352C389.415 110.777 389.536 110.47 389.718 110.245V110.245C389.972 109.937 390.404 109.785 391.014 109.785V109.785C391.559 109.785 391.971 109.862 392.256 110.018V110.018C392.534 110.175 392.675 110.457 392.675 110.867V110.867C392.675 111.203 392.493 111.452 392.127 111.612V111.612C391.923 111.702 391.581 111.779 391.106 111.842V111.842L390.232 111.951C389.237 112.079 388.488 112.294 387.975 112.592V112.592C387.044 113.144 386.577 114.032 386.577 115.261V115.261C386.577 116.212 386.866 116.943 387.447 117.46V117.46C388.026 117.976 388.761 118.235 389.65 118.235V118.235C390.345 118.235 390.969 118.072 391.524 117.749V117.749C391.985 117.473 392.393 117.141 392.748 116.75V116.75C392.765 116.975 392.791 117.178 392.819 117.354V117.354C392.85 117.531 392.902 117.721 392.983 117.923V117.923H395.758V117.539C395.591 117.46 395.464 117.358 395.38 117.236V117.236C395.296 117.112 395.246 116.881 395.229 116.538V116.538C395.216 116.085 395.212 115.699 395.212 115.381V115.381V110.794C395.212 109.589 394.794 108.769 393.961 108.335V108.335C393.128 107.901 392.174 107.683 391.1 107.683V107.683C389.449 107.683 388.289 108.125 387.611 109.005V109.005ZM389.499 116.038C389.252 115.839 389.129 115.516 389.129 115.069V115.069C389.129 114.569 389.333 114.198 389.733 113.961V113.961C389.97 113.818 390.363 113.701 390.906 113.603V113.603L391.486 113.492C391.779 113.437 392.006 113.377 392.173 113.312V113.312C392.338 113.249 392.502 113.166 392.67 113.061V113.061V114.033C392.649 114.909 392.405 115.51 391.935 115.839V115.839C391.466 116.169 390.951 116.335 390.394 116.335V116.335C390.043 116.335 389.743 116.237 389.499 116.038V116.038Z" fill="white"/>
</mask>
<g mask="url(#mask11_58_282)">
<path fill-rule="evenodd" clip-rule="evenodd" d="M14.0176 204.684H502.31V-77.3983H14.0176V204.684Z" fill="#1775CF"/>
<path fill-rule="evenodd" clip-rule="evenodd" d="M381.003 123.969H401.332V101.949H381.003V123.969Z" fill="#1775CF"/>
</g>
<path fill-rule="evenodd" clip-rule="evenodd" d="M402.297 115.616C402.681 115.144 402.872 114.392 402.872 113.362C402.872 112.394 402.69 111.655 402.325 111.149C401.965 110.644 401.479 110.39 400.867 110.39C400.036 110.39 399.462 110.832 399.147 111.713C398.98 112.18 398.895 112.76 398.895 113.446C398.895 114.039 398.983 114.567 399.16 115.031C399.486 115.893 400.059 116.323 400.89 116.323C401.446 116.323 401.915 116.087 402.297 115.616M401.485 108.291C402.067 108.559 402.531 109.053 402.888 109.772V108.3H405.211V117.993C405.211 119.311 405.014 120.305 404.618 120.974C403.938 122.124 402.632 122.697 400.709 122.697C399.546 122.697 398.596 122.442 397.859 121.929C397.124 121.417 396.719 120.65 396.642 119.635H399.231C399.295 119.945 399.406 120.169 399.555 120.306C399.812 120.551 400.244 120.672 400.85 120.672C401.708 120.672 402.283 120.352 402.571 119.707C402.759 119.295 402.855 118.601 402.855 117.628V116.969C402.629 117.41 402.382 117.737 402.119 117.956C401.645 118.362 401.033 118.565 400.274 118.565C399.105 118.565 398.17 118.104 397.473 117.182C396.772 116.259 396.426 115.011 396.426 113.436C396.426 111.919 396.76 110.642 397.433 109.607C398.106 108.574 399.061 108.055 400.293 108.055C400.75 108.055 401.147 108.135 401.485 108.291" fill="#1775CF"/>
<mask id="mask12_58_282" style="mask-type:luminance" maskUnits="userSpaceOnUse" x="396" y="108" width="10" height="16">
<path fill-rule="evenodd" clip-rule="evenodd" d="M397.652 109.892C396.949 110.93 396.601 112.211 396.601 113.733V113.733C396.601 115.313 396.962 116.563 397.695 117.49V117.49C398.423 118.415 399.401 118.877 400.621 118.877V118.877C401.414 118.877 402.054 118.674 402.55 118.266V118.266C402.825 118.047 403.08 117.72 403.318 117.277V117.277V117.937C403.318 118.914 403.217 119.61 403.021 120.023V120.023C402.719 120.668 402.12 120.991 401.223 120.991V120.991C400.59 120.991 400.139 120.87 399.87 120.624V120.624C399.714 120.487 399.599 120.26 399.531 119.949V119.949H396.826C396.907 120.971 397.332 121.738 398.098 122.25V122.25C398.868 122.765 399.861 123.022 401.074 123.022V123.022C403.086 123.022 404.45 122.446 405.161 121.294V121.294C405.574 120.621 405.78 119.626 405.78 118.303V118.303V108.58H403.353V110.058C402.98 109.337 402.495 108.84 401.887 108.572V108.572C401.534 108.416 401.118 108.336 400.641 108.336V108.336C399.355 108.336 398.356 108.856 397.652 109.892V109.892ZM399.458 115.331C399.271 114.868 399.181 114.338 399.181 113.742V113.742C399.181 113.055 399.269 112.471 399.444 112.004V112.004C399.773 111.119 400.373 110.678 401.241 110.678V110.678C401.88 110.678 402.39 110.934 402.765 111.439V111.439C403.146 111.947 403.334 112.686 403.334 113.659V113.659C403.334 114.692 403.137 115.446 402.735 115.919V115.919C402.336 116.392 401.847 116.629 401.266 116.629V116.629C400.396 116.629 399.798 116.198 399.458 115.331V115.331Z" fill="white"/>
</mask>
<g mask="url(#mask12_58_282)">
<path fill-rule="evenodd" clip-rule="evenodd" d="M14.8602 210.345H503.153V-88.0107H14.8602V210.345Z" fill="#1775CF"/>
<path fill-rule="evenodd" clip-rule="evenodd" d="M391.027 129.086H411.355V102.272H391.027V129.086Z" fill="#1775CF"/>
</g>
<path fill-rule="evenodd" clip-rule="evenodd" d="M410.179 110.691C409.8 111.059 409.56 111.557 409.461 112.188H414.115C414.069 111.516 413.825 111.007 413.398 110.66C412.964 110.311 412.432 110.14 411.795 110.14C411.102 110.14 410.563 110.324 410.179 110.691M414.223 108.509C414.946 108.811 415.541 109.286 416.01 109.938C416.431 110.513 416.707 111.177 416.832 111.936C416.905 112.38 416.932 113.019 416.922 113.855H409.396C409.438 114.823 409.799 115.503 410.475 115.895C410.889 116.138 411.384 116.258 411.966 116.258C412.582 116.258 413.081 116.108 413.465 115.815C413.676 115.656 413.86 115.433 414.022 115.148H416.781C416.707 115.721 416.374 116.304 415.779 116.895C414.854 117.836 413.557 118.304 411.891 118.304C410.518 118.304 409.302 117.909 408.249 117.116C407.199 116.323 406.675 115.033 406.675 113.246C406.675 111.572 407.147 110.289 408.098 109.395C409.047 108.502 410.277 108.055 411.795 108.055C412.691 108.055 413.5 108.207 414.223 108.509" fill="#1775CF"/>
<mask id="mask13_58_282" style="mask-type:luminance" maskUnits="userSpaceOnUse" x="405" y="107" width="11" height="12">
<path fill-rule="evenodd" clip-rule="evenodd" d="M407.048 109.062C406.148 109.983 405.699 111.304 405.699 113.027V113.027C405.699 114.867 406.196 116.195 407.192 117.012V117.012C408.19 117.829 409.343 118.235 410.645 118.235V118.235C412.225 118.235 413.455 117.753 414.333 116.784V116.784C414.897 116.176 415.213 115.575 415.281 114.986V114.986H412.666C412.513 115.279 412.34 115.507 412.138 115.672V115.672C411.774 115.974 411.301 116.129 410.716 116.129V116.129C410.164 116.129 409.695 116.005 409.303 115.754V115.754C408.662 115.351 408.319 114.652 408.279 113.654V113.654H415.417C415.426 112.794 415.401 112.136 415.331 111.678V111.678C415.213 110.898 414.952 110.213 414.553 109.622V109.622C414.105 108.951 413.542 108.459 412.857 108.148V108.148C412.17 107.839 411.404 107.683 410.554 107.683V107.683C409.115 107.683 407.948 108.143 407.048 109.062V109.062ZM409.022 110.396C409.386 110.019 409.897 109.828 410.554 109.828V109.828C411.158 109.828 411.662 110.006 412.074 110.365V110.365C412.479 110.722 412.711 111.246 412.755 111.937V111.937H408.341C408.433 111.29 408.662 110.776 409.022 110.396V110.396Z" fill="white"/>
</mask>
<g mask="url(#mask13_58_282)">
<path fill-rule="evenodd" clip-rule="evenodd" d="M14.2388 204.684H502.531V-77.3983H14.2388V204.684Z" fill="#1775CF"/>
<path fill-rule="evenodd" clip-rule="evenodd" d="M400.125 123.969H420.992V101.949H400.125V123.969Z" fill="#1775CF"/>
</g>
<path fill-rule="evenodd" clip-rule="evenodd" d="M427.14 108.367C426.916 107.417 426.369 106.752 425.494 106.373C425.008 106.166 424.467 106.063 423.871 106.063C422.727 106.063 421.791 106.484 421.056 107.329C420.325 108.175 419.953 109.447 419.953 111.145C419.953 112.855 420.353 114.063 421.149 114.774C421.943 115.484 422.847 115.838 423.86 115.838C424.853 115.838 425.666 115.558 426.304 115.002C426.942 114.44 427.331 113.706 427.478 112.798H424.196V110.473H430.102V117.947H428.143L427.843 116.207C427.273 116.866 426.76 117.329 426.304 117.6C425.519 118.069 424.561 118.304 423.419 118.304C421.541 118.304 420.001 117.667 418.801 116.389C417.55 115.105 416.924 113.349 416.924 111.12C416.924 108.869 417.559 107.061 418.82 105.7C420.085 104.343 421.756 103.662 423.832 103.662C425.634 103.662 427.082 104.111 428.173 105.008C429.269 105.906 429.893 107.025 430.051 108.367H427.14Z" fill="#1775CF"/>
<mask id="mask14_58_282" style="mask-type:luminance" maskUnits="userSpaceOnUse" x="417" y="104" width="13" height="15">
<path fill-rule="evenodd" clip-rule="evenodd" d="M419.289 106.26C418.092 107.624 417.49 109.438 417.49 111.696V111.696C417.49 113.932 418.084 115.692 419.27 116.98V116.98C420.408 118.263 421.868 118.903 423.649 118.903V118.903C424.732 118.903 425.642 118.666 426.384 118.195V118.195C426.817 117.925 427.303 117.46 427.846 116.798V116.798L428.129 118.545H429.986V111.047H424.385V113.378H427.498C427.358 114.289 426.989 115.026 426.384 115.589V115.589C425.779 116.149 425.01 116.429 424.067 116.429V116.429C423.107 116.429 422.249 116.073 421.496 115.361V115.361C420.743 114.649 420.364 113.435 420.364 111.72V111.72C420.364 110.017 420.714 108.741 421.41 107.895V107.895C422.107 107.045 422.994 106.624 424.077 106.624V106.624C424.643 106.624 425.157 106.728 425.618 106.936V106.936C426.448 107.316 426.967 107.981 427.177 108.936V108.936H429.939C429.789 107.589 429.196 106.465 428.157 105.566V105.566C427.122 104.665 425.749 104.215 424.04 104.215V104.215C422.071 104.215 420.488 104.899 419.289 106.26V106.26Z" fill="white"/>
</mask>
<g mask="url(#mask14_58_282)">
<path fill-rule="evenodd" clip-rule="evenodd" d="M-5.66663 210.338H507.992V-88.0176H-5.66663V210.338Z" fill="#1775CF"/>
<path fill-rule="evenodd" clip-rule="evenodd" d="M411.626 124.967H435.851V98.1522H411.626V124.967Z" fill="#1775CF"/>
</g>
<path fill-rule="evenodd" clip-rule="evenodd" d="M435.072 110.691C434.691 111.059 434.45 111.557 434.353 112.188H439.008C438.957 111.516 438.719 111.007 438.285 110.66C437.856 110.311 437.323 110.14 436.684 110.14C435.991 110.14 435.454 110.324 435.072 110.691M439.114 108.509C439.837 108.811 440.429 109.286 440.901 109.938C441.325 110.513 441.598 111.177 441.723 111.936C441.794 112.38 441.825 113.019 441.812 113.855H434.287C434.329 114.823 434.686 115.503 435.368 115.895C435.779 116.138 436.277 116.258 436.857 116.258C437.471 116.258 437.972 116.108 438.356 115.815C438.566 115.656 438.752 115.433 438.916 115.148H441.671C441.598 115.721 441.264 116.304 440.673 116.895C439.742 117.836 438.448 118.304 436.783 118.304C435.403 118.304 434.193 117.909 433.139 117.116C432.089 116.323 431.566 115.033 431.566 113.246C431.566 111.572 432.039 110.289 432.987 109.395C433.938 108.502 435.169 108.055 436.684 108.055C437.584 108.055 438.396 108.207 439.114 108.509" fill="#1775CF"/>
<mask id="mask15_58_282" style="mask-type:luminance" maskUnits="userSpaceOnUse" x="432" y="107" width="11" height="12">
<path fill-rule="evenodd" clip-rule="evenodd" d="M433.841 109.062C432.916 109.983 432.455 111.304 432.455 113.027V113.027C432.455 114.867 432.965 116.195 433.989 117.012V117.012C435.017 117.829 436.198 118.235 437.544 118.235V118.235C439.167 118.235 440.43 117.753 441.338 116.784V116.784C441.913 116.176 442.241 115.575 442.31 114.986V114.986H439.624C439.462 115.279 439.283 115.507 439.077 115.672V115.672C438.702 115.974 438.214 116.129 437.616 116.129V116.129C437.049 116.129 436.564 116.005 436.163 115.754V115.754C435.498 115.351 435.149 114.652 435.107 113.654V113.654H442.449C442.462 112.794 442.431 112.136 442.362 111.678V111.678C442.241 110.898 441.972 110.213 441.561 109.622V109.622C441.099 108.951 440.521 108.459 439.818 108.148V108.148C439.116 107.839 438.324 107.683 437.446 107.683V107.683C435.968 107.683 434.769 108.143 433.841 109.062V109.062ZM435.874 110.396C436.248 110.019 436.771 109.828 437.446 109.828V109.828C438.071 109.828 438.589 110.006 439.009 110.365V110.365C439.432 110.722 439.663 111.246 439.714 111.937V111.937H435.172C435.268 111.29 435.503 110.776 435.874 110.396V110.396Z" fill="white"/>
</mask>
<g mask="url(#mask15_58_282)">
<path fill-rule="evenodd" clip-rule="evenodd" d="M5.92627 204.684H508.17V-77.3983H5.92627V204.684Z" fill="#1775CF"/>
<path fill-rule="evenodd" clip-rule="evenodd" d="M426.72 123.969H448.184V101.949H426.72V123.969Z" fill="#1775CF"/>
</g>
<path fill-rule="evenodd" clip-rule="evenodd" d="M459.158 108.062C459.191 108.065 459.267 108.069 459.385 108.076V110.758C459.22 110.738 459.07 110.726 458.941 110.72C458.811 110.714 458.704 110.711 458.627 110.711C457.566 110.711 456.853 111.054 456.487 111.739C456.286 112.125 456.184 112.718 456.184 113.52V118.304H453.528V108.296H456.046V110.039C456.451 109.373 456.808 108.918 457.107 108.673C457.602 108.262 458.241 108.055 459.034 108.055C459.08 108.055 459.124 108.059 459.158 108.062" fill="#1775CF"/>
<mask id="mask16_58_282" style="mask-type:luminance" maskUnits="userSpaceOnUse" x="452" y="108" width="7" height="11">
<path fill-rule="evenodd" clip-rule="evenodd" d="M456.336 108.897C456.041 109.128 455.687 109.563 455.288 110.191V110.191V108.54H452.8V118.032H455.423V113.494C455.423 112.734 455.524 112.172 455.723 111.805V111.805C456.084 111.158 456.788 110.832 457.836 110.832V110.832C457.913 110.832 458.018 110.834 458.146 110.839V110.839C458.274 110.844 458.424 110.857 458.585 110.875V110.875V108.332C458.468 108.326 458.394 108.321 458.36 108.318V108.318C458.327 108.317 458.283 108.313 458.239 108.313V108.313C457.455 108.313 456.824 108.509 456.336 108.897V108.897Z" fill="white"/>
</mask>
<g mask="url(#mask16_58_282)">
<path fill-rule="evenodd" clip-rule="evenodd" d="M-12.9068 202.079H510.264V-72.1671H-12.9068V202.079Z" fill="#1775CF"/>
<path fill-rule="evenodd" clip-rule="evenodd" d="M446.828 123.606H464.558V102.739H446.828V123.606Z" fill="#1775CF"/>
</g>
<path fill-rule="evenodd" clip-rule="evenodd" d="M449.475 114.222C449.456 115.073 449.209 115.657 448.732 115.977C448.251 116.298 447.731 116.459 447.161 116.459C446.803 116.459 446.498 116.363 446.25 116.17C445.998 115.977 445.875 115.663 445.875 115.229C445.875 114.743 446.081 114.383 446.489 114.152C446.732 114.015 447.129 113.9 447.684 113.803L448.277 113.697C448.568 113.644 448.803 113.586 448.972 113.524C449.141 113.461 449.309 113.381 449.475 113.278V114.222ZM452.064 111.078C452.064 109.907 451.641 109.111 450.79 108.689C449.941 108.267 448.974 108.055 447.879 108.055C446.199 108.055 445.02 108.485 444.327 109.34C443.894 109.886 443.652 110.585 443.596 111.434H446.103C446.166 111.061 446.289 110.763 446.472 110.544C446.732 110.246 447.17 110.098 447.793 110.098C448.347 110.098 448.768 110.172 449.057 110.324C449.343 110.475 449.485 110.749 449.485 111.149C449.485 111.475 449.296 111.716 448.925 111.871C448.716 111.96 448.369 112.034 447.886 112.094L446.997 112.2C445.987 112.325 445.219 112.533 444.7 112.823C443.751 113.359 443.279 114.222 443.279 115.415C443.279 116.339 443.573 117.049 444.163 117.551C444.752 118.053 445.498 118.304 446.405 118.304C447.113 118.304 447.748 118.146 448.31 117.833C448.78 117.564 449.31 117.171 449.691 116.811C450.399 116.152 452.064 114.255 452.064 111.525V111.078Z" fill="#1775CF"/>
<mask id="mask17_58_282" style="mask-type:luminance" maskUnits="userSpaceOnUse" x="442" y="107" width="9" height="12">
<path fill-rule="evenodd" clip-rule="evenodd" d="M443.168 109.005C442.757 109.568 442.528 110.287 442.476 111.162V111.162H444.854C444.912 110.777 445.029 110.47 445.202 110.245V110.245C445.45 109.937 445.866 109.785 446.455 109.785V109.785C446.98 109.785 447.381 109.862 447.654 110.018V110.018C447.925 110.175 448.061 110.457 448.061 110.867V110.867C448.061 111.203 447.881 111.452 447.528 111.612V111.612C447.33 111.702 447.001 111.779 446.543 111.842V111.842L445.701 111.951C444.744 112.079 444.015 112.294 443.522 112.592V112.592C442.622 113.144 442.174 114.032 442.174 115.261V115.261C442.174 116.212 442.453 116.943 443.012 117.46V117.46C443.571 117.976 444.28 118.235 445.139 118.235V118.235C445.81 118.235 446.413 118.072 446.945 117.749V117.749C447.392 117.473 447.895 117.069 448.256 116.699V116.699C448.926 116.02 450.506 114.067 450.506 111.254V111.254V110.794C450.506 109.589 450.104 108.769 449.298 108.335V108.335C448.494 107.901 447.575 107.683 446.537 107.683V107.683C444.944 107.683 443.826 108.125 443.168 109.005V109.005ZM444.991 116.038C444.754 115.84 444.637 115.516 444.637 115.069V115.069C444.637 114.569 444.832 114.198 445.218 113.961V113.961C445.45 113.818 445.827 113.701 446.353 113.603V113.603L446.915 113.492C447.191 113.437 447.413 113.377 447.574 113.312V113.312C447.734 113.249 447.892 113.166 448.05 113.061V113.061V114.033C448.032 114.909 447.798 115.51 447.347 115.84V115.84C446.889 116.169 446.396 116.335 445.857 116.335V116.335C445.517 116.335 445.228 116.237 444.991 116.038V116.038Z" fill="white"/>
</mask>
<g mask="url(#mask17_58_282)">
<path fill-rule="evenodd" clip-rule="evenodd" d="M32.4115 204.684H503.265V-77.3983H32.4115V204.684Z" fill="#1775CF"/>
<path fill-rule="evenodd" clip-rule="evenodd" d="M436.8 123.969H455.882V101.949H436.8V123.969Z" fill="#1775CF"/>
</g>
<path fill-rule="evenodd" clip-rule="evenodd" d="M447.672 117.408C447.685 117.524 447.699 117.636 447.717 117.736C447.746 117.913 447.797 118.102 447.874 118.304H450.6V117.922C450.434 117.842 450.313 117.74 450.23 117.618C450.147 117.497 450.097 117.266 450.077 116.926C450.067 116.475 450.062 116.091 450.062 115.774V113.912C449.537 115.49 448.201 116.894 447.672 117.408" fill="#1775CF"/>
<mask id="mask18_58_282" style="mask-type:luminance" maskUnits="userSpaceOnUse" x="447" y="112" width="4" height="7">
<path fill-rule="evenodd" clip-rule="evenodd" d="M447.414 117.232C447.429 117.38 447.446 117.52 447.467 117.646V117.646C447.502 117.871 447.562 118.109 447.654 118.365V118.365H450.885V117.881C450.688 117.781 450.544 117.652 450.444 117.5V117.5C450.347 117.346 450.288 117.054 450.264 116.622V116.622C450.252 116.052 450.247 115.566 450.247 115.165V115.165V112.81C449.625 114.806 448.041 116.582 447.414 117.232V117.232Z" fill="white"/>
</mask>
<g mask="url(#mask18_58_282)">
<path fill-rule="evenodd" clip-rule="evenodd" d="M-106.575 226.425H521.23V-126.177H-106.575V226.425Z" fill="#1775CF"/>
</g>
<mask id="mask19_58_282" style="mask-type:luminance" maskUnits="userSpaceOnUse" x="447" y="112" width="4" height="7">
<path fill-rule="evenodd" clip-rule="evenodd" d="M450.247 112.81L450.248 115.482C450.25 115.814 450.255 116.194 450.264 116.622V116.622L450.283 116.864C450.314 117.165 450.367 117.376 450.444 117.5V117.5L450.527 117.609C450.619 117.714 450.737 117.806 450.885 117.881V117.881V118.365H447.654L447.572 118.115C447.525 117.952 447.49 117.796 447.467 117.646V117.646L447.438 117.447V117.447L447.414 117.232C448.041 116.582 449.625 114.806 450.247 112.81V112.81Z" fill="white"/>
</mask>
<g mask="url(#mask19_58_282)">
<path fill-rule="evenodd" clip-rule="evenodd" d="M-106.573 226.427H521.232V-126.177H-106.573V226.427Z" fill="#1775CF"/>
</g>
</svg>
